<svg xmlns="http://www.w3.org/2000/svg" viewBox="0 0 150 150"><defs><style>.a{fill:red;}</style></defs><title>Frame</title><path d="M131.64,4.21a14.14,14.14,0,0,1,14.15,14.15V131.64a14.14,14.14,0,0,1-14.15,14.15H18.36A14.14,14.14,0,0,1,4.21,131.64V18.36A14.14,14.14,0,0,1,18.36,4.21H131.64m0-4.21H18.36A18.39,18.39,0,0,0,0,18.36V131.64A18.39,18.39,0,0,0,18.36,150H131.64A18.39,18.39,0,0,0,150,131.64V18.36A18.39,18.39,0,0,0,131.64,0Z"/><path d="M41.53,37.72v4.61H19.63V18.93H25V37.72Z"/><path class="a" d="M122.08,126.13H107.94l-2.51,4.94H99.72l12.4-23.4H118l12.4,23.4h-5.78Zm-2.24-4.35L115,112.25l-4.84,9.53Z"/><path d="M29.73,59.29a15.87,15.87,0,0,0,2,4.84,28.67,28.67,0,0,0,4.82,5.27A22.61,22.61,0,0,1,41,74.24a7,7,0,0,1,.93,3.42,5.44,5.44,0,0,1-1.6,4,5.27,5.27,0,0,1-3.86,1.61q-3.91,0-6.39-4.77a15.31,15.31,0,0,0,1,5.86,7.28,7.28,0,0,0,3,3.4,12.09,12.09,0,0,0,5.48,1.47l.18.93H19.8l.18-.93A10.41,10.41,0,0,0,25.25,88a8.21,8.21,0,0,0,3.29-3.49,12.94,12.94,0,0,0,1-6,9.14,9.14,0,0,1-2.8,3.58A6.31,6.31,0,0,1,23,83.25a5.57,5.57,0,0,1-5.52-5.49,6.78,6.78,0,0,1,.81-3.33,15.38,15.38,0,0,1,3.93-4.36,28.12,28.12,0,0,0,5.44-5.74A14.36,14.36,0,0,0,29.73,59.29Z"/><path class="a" d="M94.36,90.69a22.5,22.5,0,0,0-2.08-5.15,77.39,77.39,0,0,0-5.16-7.48q-2.82-3.7-3.49-4.74a13.81,13.81,0,0,1-1.55-3,8.18,8.18,0,0,1-.48-2.76,5.93,5.93,0,0,1,1.73-4.34,5.81,5.81,0,0,1,4.29-1.75A6.2,6.2,0,0,1,92,63.3a10,10,0,0,1,2.33,4A8.35,8.35,0,0,1,97,62.92a6.12,6.12,0,0,1,4-1.45,5.89,5.89,0,0,1,4.28,1.73A5.54,5.54,0,0,1,107,67.28a10.62,10.62,0,0,1-1,4.39,31.35,31.35,0,0,1-4,6,64.83,64.83,0,0,0-5.38,7.58A22.53,22.53,0,0,0,94.36,90.69Z"/><path class="a" d="M121,59.52a92.24,92.24,0,0,0,5.69,8.39q3.45,4.61,5.79,7.19a90.75,90.75,0,0,0-6.07,7.57A77.75,77.75,0,0,0,121,90.74a30.42,30.42,0,0,0-1.72-2.86Q117.4,85,114.38,81c-.5-.67-2.08-2.65-4.76-5.94q2.53-2.88,6.47-8.14A69.14,69.14,0,0,0,121,59.52Z"/><path d="M73.23,89.88H52.13l.2-.85a19.52,19.52,0,0,0,5.46-1.7,9.3,9.3,0,0,0,3.31-3.77,11.38,11.38,0,0,0,1.28-5.23c0-.25,0-.63-.05-1.15a10.75,10.75,0,0,1-3.67,4.48,8,8,0,0,1-4.45,1.43,6.67,6.67,0,0,1-4.91-2,6.76,6.76,0,0,1-2-5,6.93,6.93,0,0,1,1.85-4.88,5.51,5.51,0,0,1,4.14-2,10,10,0,0,1,4.09,1.28A15.36,15.36,0,0,1,56,67.93,5.79,5.79,0,0,1,55.69,66a6.45,6.45,0,0,1,2-4.78,7.14,7.14,0,0,1,9.84,0,6.38,6.38,0,0,1,2,4.7,8,8,0,0,1-1.71,4.61c1.4-.65,2.24-1,2.51-1.1a5.16,5.16,0,0,1,1.53-.2,5.74,5.74,0,0,1,4.33,2A6.81,6.81,0,0,1,78,76a6.89,6.89,0,0,1-2,5,6.57,6.57,0,0,1-4.84,2A7.75,7.75,0,0,1,68,82.32a9.35,9.35,0,0,1-2.9-2,17.38,17.38,0,0,1-2.15-3.11,15.42,15.42,0,0,0,1.2,6.26,9.22,9.22,0,0,0,3.41,3.81A16.74,16.74,0,0,0,73,89Z"/></svg>