<svg xmlns="http://www.w3.org/2000/svg" viewBox="0 0 150 150"><defs><style>.a{fill:#f0f0f0;}.b{fill:red;}</style></defs><title>Noframe</title><rect class="a" width="150" height="150" rx="10.1"/><path d="M39.54,35.5v4.89H16.34V15.59H22V35.5Z" transform="translate(0 0)"/><path class="b" d="M124.88,129.16h-15l-2.66,5.25h-6.06l13.14-24.8h6.2l13.14,24.8h-6.12Zm-2.37-4.6-5.14-10.1-5.14,10.1Z" transform="translate(0 0)"/><path d="M27,58.36a16.9,16.9,0,0,0,2.12,5.12,30.54,30.54,0,0,0,5.11,5.59,24,24,0,0,1,4.66,5.12,7.53,7.53,0,0,1,1,3.63A5.71,5.71,0,0,1,38.21,82a5.57,5.57,0,0,1-4.09,1.7c-2.76,0-5-1.69-6.76-5a15.91,15.91,0,0,0,1,6.2,7.72,7.72,0,0,0,3.17,3.61,12.81,12.81,0,0,0,5.81,1.55l.19,1h-21l.19-1a11.06,11.06,0,0,0,5.59-1.32A8.72,8.72,0,0,0,25.78,85a13.85,13.85,0,0,0,1.1-6.35,9.6,9.6,0,0,1-3,3.78,6.62,6.62,0,0,1-4,1.27A5.64,5.64,0,0,1,15.83,82a5.58,5.58,0,0,1-1.72-4.09A7.26,7.26,0,0,1,15,74.39a16.16,16.16,0,0,1,4.17-4.62,29.55,29.55,0,0,0,5.76-6.08A15.13,15.13,0,0,0,27,58.36Z" transform="translate(0 0)"/><path class="b" d="M95.51,91.62a23.67,23.67,0,0,0-2.21-5.46,81.17,81.17,0,0,0-5.46-7.92q-3-3.93-3.69-5a14.42,14.42,0,0,1-1.65-3.16,8.58,8.58,0,0,1-.5-2.92,6.26,6.26,0,0,1,1.83-4.6,6.14,6.14,0,0,1,4.54-1.85A6.56,6.56,0,0,1,93,62.6a10.63,10.63,0,0,1,2.47,4.28,8.85,8.85,0,0,1,2.77-4.67,6.52,6.52,0,0,1,4.21-1.54A6.22,6.22,0,0,1,107,62.5a5.87,5.87,0,0,1,1.86,4.33,11.22,11.22,0,0,1-1.08,4.64,33.67,33.67,0,0,1-4.21,6.35,68.16,68.16,0,0,0-5.69,8A23.77,23.77,0,0,0,95.51,91.62Z" transform="translate(0 0)"/><path class="b" d="M123.73,58.6a100.69,100.69,0,0,0,6,8.89q3.66,4.89,6.13,7.62a94.18,94.18,0,0,0-6.42,8,83.77,83.77,0,0,0-5.71,8.55,32.55,32.55,0,0,0-1.83-3q-2-3-5.21-7.25-.8-1.07-5-6.29,2.68-3.06,6.85-8.63A72.29,72.29,0,0,0,123.73,58.6Z" transform="translate(0 0)"/><path d="M73.12,90.77H50.77l.21-.91a20.82,20.82,0,0,0,5.79-1.8,10,10,0,0,0,3.51-4,12,12,0,0,0,1.35-5.53c0-.27,0-.67-.05-1.22a11.42,11.42,0,0,1-3.89,4.75A8.54,8.54,0,0,1,53,83.57a7.08,7.08,0,0,1-5.21-2.13,7.2,7.2,0,0,1-2.12-5.25,7.33,7.33,0,0,1,2-5.16A5.86,5.86,0,0,1,52,68.92a10.49,10.49,0,0,1,4.33,1.35,15.74,15.74,0,0,1-1.45-2.76,6.19,6.19,0,0,1-.33-2,6.87,6.87,0,0,1,2.09-5.07,7.07,7.07,0,0,1,5.21-2.07,7.14,7.14,0,0,1,5.22,2.08,6.74,6.74,0,0,1,2.11,5,8.47,8.47,0,0,1-1.81,4.88c1.49-.69,2.38-1.08,2.66-1.16a5.43,5.43,0,0,1,1.62-.22A6.08,6.08,0,0,1,76.23,71,7.72,7.72,0,0,1,76,81.4a6.93,6.93,0,0,1-5.12,2.15,8.2,8.2,0,0,1-3.38-.8,9.83,9.83,0,0,1-3.07-2.15,17.7,17.7,0,0,1-2.28-3.29,16.52,16.52,0,0,0,1.27,6.63,9.84,9.84,0,0,0,3.61,4,17.58,17.58,0,0,0,5.84,1.88Z" transform="translate(0 0)"/></svg>